<?xml version="1.0" standalone="no"?>
<!DOCTYPE svg PUBLIC "-//W3C//DTD SVG 20010904//EN"
 "http://www.w3.org/TR/2001/REC-SVG-20010904/DTD/svg10.dtd">
<svg version="1.0" xmlns="http://www.w3.org/2000/svg"
 width="64.000000pt" height="64.000000pt" viewBox="0 0 64.000000 64.000000"
 preserveAspectRatio="xMidYMid meet">

<g transform="translate(0.000000,64.000000) scale(0.100000,-0.100000)"
fill="#000000" stroke="none">
<path d="M0 320 l0 -320 320 0 320 0 0 320 0 320 -320 0 -320 0 0 -320z m333
260 c3 -11 6 -23 6 -25 0 -3 8 -20 17 -38 10 -17 21 -45 25 -62 4 -16 13 -45
20 -62 9 -22 10 -36 3 -43 -6 -6 -10 -1 -9 17 0 15 -6 28 -15 30 -13 4 -13 3
0 -6 16 -11 7 -27 -10 -16 -6 4 -8 15 -5 26 4 11 -2 33 -14 53 -12 18 -20 42
-20 52 3 33 -1 54 -10 54 -5 0 -11 -8 -15 -17 -3 -10 -9 -24 -12 -32 -4 -9 -2
-11 5 -7 18 11 13 -14 -10 -50 -13 -21 -18 -41 -14 -54 4 -13 1 -22 -8 -26 -8
-3 -17 -23 -21 -44 -3 -21 -11 -42 -18 -46 -8 -5 -9 -2 -5 9 3 10 3 17 -2 17
-5 0 -11 -8 -15 -17 -3 -10 -9 -25 -13 -33 -5 -13 -4 -13 10 -1 23 18 22 -1
-1 -27 -14 -15 -22 -18 -30 -10 -12 12 -7 32 20 70 10 14 18 33 18 42 0 9 5
16 10 16 6 0 10 8 10 18 0 9 7 26 15 36 8 11 15 27 15 37 0 9 7 19 15 23 8 3
15 10 15 16 0 6 -5 8 -11 5 -5 -4 -3 9 5 29 8 20 15 37 16 39 0 1 3 12 6 25 8
27 20 29 27 2z m74 -272 c-3 -8 -6 -5 -6 6 -1 11 2 17 5 13 3 -3 4 -12 1 -19z
m54 -43 l10 -20 -16 20 c-9 11 -21 29 -26 40 l-10 20 16 -20 c9 -11 21 -29 26
-40z m-336 -5 c3 -5 13 -6 22 -3 11 4 14 3 9 -6 -4 -6 0 -23 9 -37 9 -14 14
-28 12 -31 -3 -3 -13 9 -22 27 -9 18 -19 29 -22 26 -8 -8 31 -81 43 -79 6 1
24 -12 40 -29 l29 -30 -25 7 c-28 7 -90 71 -90 92 0 8 -4 11 -10 8 -5 -3 -7 0
-4 8 3 8 -2 21 -10 30 -9 9 -16 18 -16 21 0 10 28 7 35 -4z m425 4 c0 -3 -7
-12 -16 -21 -8 -9 -13 -22 -10 -30 3 -8 1 -11 -4 -8 -6 3 -10 0 -10 -7 0 -7
-11 -26 -25 -43 l-25 -30 25 45 c28 52 33 79 11 61 -11 -9 -16 -9 -22 0 -4 7
-3 9 3 6 6 -4 18 2 28 13 17 19 45 27 45 14z m-430 -84 c0 -5 -5 -10 -11 -10
-5 0 -7 5 -4 10 3 6 8 10 11 10 2 0 4 -4 4 -10z m420 0 c0 -5 -5 -10 -11 -10
-5 0 -7 5 -4 10 3 6 8 10 11 10 2 0 4 -4 4 -10z m-124 -75 c-11 -8 -24 -15
-30 -15 -5 0 -1 7 10 15 10 8 24 14 29 14 6 0 1 -6 -9 -14z m-143 -48 c18 3
35 11 40 17 5 8 10 7 16 -3 17 -26 67 -22 127 9 31 17 52 24 45 16 -25 -30
-114 -59 -181 -59 -67 0 -156 29 -181 59 -7 8 14 1 45 -15 43 -23 64 -29 89
-24z"/>
<path d="M350 481 c0 -5 5 -13 10 -16 6 -3 10 -2 10 4 0 5 -4 13 -10 16 -5 3
-10 2 -10 -4z"/>
<path d="M245 390 c-3 -6 1 -7 9 -4 18 7 21 14 7 14 -6 0 -13 -4 -16 -10z"/>
</g>
</svg>
